<svg width="16" height="16" viewBox="0 0 16 16" fill="none" xmlns="http://www.w3.org/2000/svg">
<path d="M12.9532 8.65333C12.9799 8.43999 12.9999 8.22666 12.9999 8C12.9999 7.77333 12.9799 7.56 12.9532 7.34666L14.3599 6.24666C14.4866 6.14666 14.5199 5.96666 14.4399 5.81999L13.1066 3.51333C13.0466 3.40666 12.9332 3.34666 12.8132 3.34666C12.7732 3.34666 12.7332 3.35333 12.6999 3.36666L11.0399 4.03333C10.6932 3.76666 10.3199 3.54666 9.91323 3.38L9.65989 1.61333C9.63989 1.45333 9.49989 1.33333 9.33323 1.33333H6.66656C6.49989 1.33333 6.35989 1.45333 6.33989 1.61333L6.08656 3.38C5.67989 3.54666 5.30656 3.77333 4.95989 4.03333L3.29989 3.36666C3.25989 3.35333 3.21989 3.34666 3.17989 3.34666C3.06656 3.34666 2.95323 3.40666 2.89323 3.51333L1.55989 5.81999C1.47323 5.96666 1.51323 6.14666 1.63989 6.24666L3.04656 7.34666C3.01989 7.56 2.99989 7.78 2.99989 8C2.99989 8.22 3.01989 8.43999 3.04656 8.65333L1.63989 9.75333C1.51323 9.85333 1.47989 10.0333 1.55989 10.18L2.89323 12.4867C2.95323 12.5933 3.06656 12.6533 3.18656 12.6533C3.22656 12.6533 3.26656 12.6467 3.29989 12.6333L4.95989 11.9667C5.30656 12.2333 5.67989 12.4533 6.08656 12.62L6.33989 14.3867C6.35989 14.5467 6.49989 14.6667 6.66656 14.6667H9.33323C9.49989 14.6667 9.63989 14.5467 9.65989 14.3867L9.91323 12.62C10.3199 12.4533 10.6932 12.2267 11.0399 11.9667L12.6999 12.6333C12.7399 12.6467 12.7799 12.6533 12.8199 12.6533C12.9332 12.6533 13.0466 12.5933 13.1066 12.4867L14.4399 10.18C14.5199 10.0333 14.4866 9.85333 14.3599 9.75333L12.9532 8.65333V8.65333ZM11.6332 7.51333C11.6599 7.72 11.6666 7.86 11.6666 8C11.6666 8.14 11.6532 8.28666 11.6332 8.48666L11.5399 9.23999L12.1332 9.70666L12.8532 10.2667L12.3866 11.0733L11.5399 10.7333L10.8466 10.4533L10.2466 10.9067C9.95989 11.12 9.68656 11.28 9.41323 11.3933L8.70656 11.68L8.59989 12.4333L8.46656 13.3333H7.53323L7.40656 12.4333L7.29989 11.68L6.59323 11.3933C6.30656 11.2733 6.03989 11.12 5.77323 10.92L5.16656 10.4533L4.45989 10.74L3.61323 11.08L3.14656 10.2733L3.86656 9.71333L4.45989 9.24666L4.36656 8.49333C4.34656 8.28666 4.33323 8.13333 4.33323 8C4.33323 7.86666 4.34656 7.71333 4.36656 7.51333L4.45989 6.76L3.86656 6.29333L3.14656 5.73333L3.61323 4.92666L4.45989 5.26666L5.15323 5.54666L5.75323 5.09333C6.03989 4.87999 6.31323 4.71999 6.58656 4.60666L7.29323 4.32L7.39989 3.56666L7.53323 2.66666H8.45989L8.58656 3.56666L8.69323 4.32L9.39989 4.60666C9.68656 4.72666 9.95323 4.87999 10.2199 5.07999L10.8266 5.54666L11.5332 5.25999L12.3799 4.92L12.8466 5.72666L12.1332 6.29333L11.5399 6.76L11.6332 7.51333ZM7.99989 5.33333C6.52656 5.33333 5.33323 6.52666 5.33323 8C5.33323 9.47333 6.52656 10.6667 7.99989 10.6667C9.47323 10.6667 10.6666 9.47333 10.6666 8C10.6666 6.52666 9.47323 5.33333 7.99989 5.33333ZM7.99989 9.33333C7.26656 9.33333 6.66656 8.73333 6.66656 8C6.66656 7.26666 7.26656 6.66666 7.99989 6.66666C8.73323 6.66666 9.33323 7.26666 9.33323 8C9.33323 8.73333 8.73323 9.33333 7.99989 9.33333Z" fill="#A8B0B9"/>
</svg>
