<svg width="110" height="30" viewBox="0 0 110 30" fill="none" xmlns="http://www.w3.org/2000/svg">
<path d="M5.192 1.28H0.656V22H5.192V1.28ZM13.2954 22V14.328C13.2954 12.592 14.3874 11.472 16.0954 11.472C17.5794 11.472 18.5594 12.62 18.5594 14.384V22H22.8714V13.348C22.8714 9.68 20.9394 7.552 17.6074 7.552C15.7874 7.552 14.1914 8.252 13.3234 9.456L13.0434 8H8.98338V22H13.2954ZM29.6664 22H33.9224L39.7744 8H35.2944L33.4184 12.9C32.7184 14.72 32.1024 16.54 31.9344 17.352C31.8224 16.708 31.2624 14.944 30.5624 12.9L28.8544 8H24.2064L29.6664 22ZM47.3348 22.364C51.1708 22.364 53.9428 20.376 54.4468 17.268H50.4988C50.1908 18.276 49.0428 18.864 47.4188 18.864C45.5148 18.864 44.4788 17.996 44.2268 16.148L54.3908 16.092V15C54.3908 10.436 51.6468 7.552 47.2508 7.552C43.0228 7.552 40.0828 10.604 40.0828 14.972C40.0828 19.284 43.1068 22.364 47.3348 22.364ZM47.2788 11.052C49.0148 11.052 50.1068 12.004 50.1068 13.488H44.2828C44.6188 11.808 45.5708 11.052 47.2788 11.052ZM55.9363 17.576C55.9363 20.404 58.2603 22.364 61.9563 22.364C65.5963 22.364 68.1443 20.544 68.1443 17.548C68.1443 15.308 66.8843 14.244 64.5883 13.74L61.9843 13.18C61.0043 12.956 60.4723 12.592 60.4723 11.948C60.4723 11.192 61.0883 10.688 62.0683 10.688C63.1043 10.688 63.6923 11.332 63.6923 12.284H67.7803C67.7803 9.456 65.5123 7.552 62.2643 7.552C58.9043 7.552 56.4123 9.232 56.4123 12.144C56.4123 14.608 57.6723 15.728 60.2483 16.288L62.8243 16.848C63.8603 17.072 64.0843 17.52 64.0843 17.94C64.0843 18.668 63.4683 19.144 62.1243 19.144C60.8083 19.144 60.0803 18.556 60.0243 17.576H55.9363ZM76.0534 22V11.584H78.7134V8H76.0534V3.66H71.7414V8H69.0814V11.584H71.7414V22H76.0534ZM84.9633 22V0.888H80.6513V22H84.9633ZM87.0782 28.72C87.9182 28.972 88.8982 29.112 89.9342 29.112C92.3982 29.112 93.9662 27.908 95.1422 25.052L102.254 8H97.7742L94.3862 16.988L91.3342 8H86.7142L92.3422 22.476L92.0902 23.148C91.5302 24.66 90.9142 25.108 89.4582 25.108H87.0782V28.72Z" fill="#0D0D54"/>
<path d="M106.718 22.364C108.09 22.364 109.294 21.216 109.294 19.844C109.294 18.444 108.09 17.296 106.718 17.296C105.29 17.296 104.142 18.444 104.142 19.844C104.142 21.216 105.29 22.364 106.718 22.364Z" fill="#4040F2"/>
</svg>
