<svg width="40" height="40" viewBox="0 0 40 40" fill="none" xmlns="http://www.w3.org/2000/svg">
<rect x="0.5" y="0.5" width="39" height="39" rx="19.5" fill="white"/>
<path d="M20 26.6667C20.7333 26.6667 21.3333 26.0667 21.3333 25.3333H18.6667C18.6667 26.0667 19.2667 26.6667 20 26.6667ZM24 22.6667V19.3333C24 17.2867 22.9133 15.5733 21 15.12V14.6667C21 14.1133 20.5533 13.6667 20 13.6667C19.4467 13.6667 19 14.1133 19 14.6667V15.12C17.0933 15.5733 16 17.28 16 19.3333V22.6667L14.6667 24V24.6667H25.3333V24L24 22.6667ZM22.6667 23.3333H17.3333V19.3333C17.3333 17.68 18.34 16.3333 20 16.3333C21.66 16.3333 22.6667 17.68 22.6667 19.3333V23.3333Z" fill="#0C1116"/>
<rect x="0.5" y="0.5" width="39" height="39" rx="19.5" stroke="#EAECEE"/>
</svg>
