<svg width="40" height="40" viewBox="0 0 40 40" fill="none" xmlns="http://www.w3.org/2000/svg">
<rect x="0.5" y="0.5" width="39" height="39" rx="19.5" fill="white"/>
<path d="M22.3333 21.3333H21.8067L21.62 21.1533C22.2733 20.3933 22.6667 19.4067 22.6667 18.3333C22.6667 15.94 20.7267 14 18.3333 14C15.94 14 14 15.94 14 18.3333C14 20.7267 15.94 22.6667 18.3333 22.6667C19.4067 22.6667 20.3933 22.2733 21.1533 21.62L21.3333 21.8067V22.3333L24.6667 25.66L25.66 24.6667L22.3333 21.3333ZM18.3333 21.3333C16.6733 21.3333 15.3333 19.9933 15.3333 18.3333C15.3333 16.6733 16.6733 15.3333 18.3333 15.3333C19.9933 15.3333 21.3333 16.6733 21.3333 18.3333C21.3333 19.9933 19.9933 21.3333 18.3333 21.3333Z" fill="#0C1116"/>
<rect x="0.5" y="0.5" width="39" height="39" rx="19.5" stroke="#EAECEE"/>
</svg>
