<svg width="16" height="16" viewBox="0 0 16 16" fill="none" xmlns="http://www.w3.org/2000/svg">
<g opacity="0.9">
<path d="M7.99998 4.66667V2H1.33331V14H14.6666V4.66667H7.99998ZM3.99998 12.6667H2.66665V11.3333H3.99998V12.6667ZM3.99998 10H2.66665V8.66667H3.99998V10ZM3.99998 7.33333H2.66665V6H3.99998V7.33333ZM3.99998 4.66667H2.66665V3.33333H3.99998V4.66667ZM6.66665 12.6667H5.33331V11.3333H6.66665V12.6667ZM6.66665 10H5.33331V8.66667H6.66665V10ZM6.66665 7.33333H5.33331V6H6.66665V7.33333ZM6.66665 4.66667H5.33331V3.33333H6.66665V4.66667ZM13.3333 12.6667H7.99998V11.3333H9.33331V10H7.99998V8.66667H9.33331V7.33333H7.99998V6H13.3333V12.6667ZM12 7.33333H10.6666V8.66667H12V7.33333ZM12 10H10.6666V11.3333H12V10Z" fill="#717D8A"/>
</g>
</svg>
